<?xml version="1.0" encoding="utf-8"?>
<!-- Generator: Adobe Illustrator 15.1.0, SVG Export Plug-In . SVG Version: 6.00 Build 0)  -->
<!DOCTYPE svg PUBLIC "-//W3C//DTD SVG 1.1//EN" "http://www.w3.org/Graphics/SVG/1.1/DTD/svg11.dtd">
<svg version="1.1" id="Layer_1" xmlns="http://www.w3.org/2000/svg" xmlns:xlink="http://www.w3.org/1999/xlink" x="0px" y="0px"
	 width="352.5px" height="65.5px" viewBox="-85.833 -16 352.5 65.5" enable-background="new -85.833 -16 352.5 65.5"
	 xml:space="preserve">
<g>
	<g>
		<path d="M-68.573-3.602c2.216,0,4.002,1.786,4.002,4.002s-1.786,4-4.002,4c-4.372,0-4.742,0.37-4.742,4.742
			c0,2.216-1.784,4.002-4,4.002s-4-1.786-4-4.002s1.786-4.002,4-4.002c4.372,0,4.742-0.37,4.742-4.74
			C-72.575-1.815-70.789-3.602-68.573-3.602z"/>
		<path d="M-68.573,22.624c2.216,0,4.002,1.787,4.002,4.002s-1.786,4.002-4.002,4.002s-4.002-1.787-4.002-4.002
			S-70.789,22.624-68.573,22.624z"/>
		<path d="M-77.349,13.912c2.216,0,4.002,1.788,4.002,4.003c0,2.217-1.786,4-4.002,4s-4.002-1.785-4.002-4
			S-79.567,13.912-77.349,13.912z"/>
		<path d="M-68.573,40.11c2.216,0,4.002,1.785,4.002,4s-1.786,4.004-4.002,4.004s-4.002-1.789-4.002-4.002
			S-70.789,40.11-68.573,40.11z"/>
		<path d="M-55.829,0.4c0,2.216-1.786,4-4.002,4c-2.217,0-4-1.786-4-4c0-2.216,1.786-4.002,4-4.002c4.372,0,4.741-0.37,4.741-4.74
			c0-2.216,1.786-4.002,4.003-4.002c2.214,0,4,1.786,4,4.002s-1.786,4-4,4C-55.458-4.34-55.829-3.97-55.829,0.4z"/>
		<path d="M-55.091,9.143c0-2.216,1.786-4.002,4.002-4.002c2.215,0,4,1.786,4,4.002s-1.785,4.002-4,4.002
			c-4.371,0-4.741,0.37-4.741,4.739c0,2.219-1.786,4.002-4.002,4.002c-2.217,0-4-1.783-4-4.002c0-2.214,1.785-4,4-4
			C-55.458,13.884-55.091,13.515-55.091,9.143z"/>
		<path d="M-55.091,17.884c0-2.214,1.786-4,4.002-4c2.215,0,4,1.786,4,4c0,2.219-1.785,4.002-4,4.002
			c-4.371,0-4.741,0.369-4.741,4.742c0,2.217-1.786,4.002-4.002,4.002c-2.217,0-4-1.787-4-4.002c0-2.213,1.785-4.002,4-4.002
			C-55.458,22.624-55.091,22.255-55.091,17.884z"/>
		<path d="M-55.091,26.626c0-2.215,1.786-4.002,4.002-4.002c2.215,0,4,1.787,4,4.002s-1.785,4.002-4,4.002
			c-4.371,0-4.741,0.369-4.741,4.74c0,2.215-1.786,4-4.002,4c-2.217,0-4-1.785-4-4s1.785-4.002,4-4.002
			C-55.458,31.368-55.091,30.997-55.091,26.626z"/>
	</g>
	<g>
		<path fill="#939598" d="M257.331,7.918V7.376h2.762v0.542h-1.059v2.702h-0.643V7.918H257.331z M261.569,7.378l0.83,2.32
			l0.834-2.32h0.922v3.242h-0.596V8.004l-0.896,2.616h-0.518l-0.906-2.616v2.616h-0.596V7.378H261.569z"/>
	</g>
	<g>
		<path d="M-25.875,25.931h-11.606c-1.506,0-2.716-1.236-2.716-2.717V10.126c0-1.506,1.21-2.716,2.716-2.716h11.606
			c1.728,0,2.691,1.21,2.691,2.716v2.519c0,0.198-0.174,0.396-0.372,0.396h-0.863c-0.198,0-0.395-0.197-0.395-0.396v-2.296
			c0-0.717-0.446-1.309-1.334-1.309h-11.164c-0.766,0-1.284,0.592-1.284,1.309v12.619c0,0.74,0.593,1.357,1.334,1.357h11.139
			c0.716,0,1.31-0.617,1.31-1.357v-4.15c0-0.738-0.594-1.357-1.31-1.357h-6.15c-0.196,0-0.394-0.172-0.394-0.37v-0.84
			c0-0.198,0.197-0.396,0.394-0.396h8.694c0.248,0,0.396,0.147,0.396,0.396v6.964C-23.185,24.694-24.395,25.931-25.875,25.931z"/>
		<path d="M-3.803,20.62v4.914c0,0.197-0.197,0.396-0.394,0.396h-0.816c-0.197,0-0.394-0.199-0.394-0.396v-5.111
			c0-0.717-0.592-1.311-1.334-1.311h-11.114c-0.74,0-1.334,0.592-1.334,1.311v5.111c0,0.197-0.198,0.396-0.396,0.396h-0.814
			c-0.198,0-0.396-0.199-0.396-0.396V7.802c0-0.197,0.197-0.394,0.396-0.394h13.928c1.482,0,2.666,1.21,2.666,2.692v5.828
			c0,1.136-0.518,1.975-1.233,2.346C-4.247,18.669-3.803,19.56-3.803,20.62z M-6.739,17.458c0.742,0,1.334-0.592,1.334-1.31v-5.802
			c0-0.717-0.592-1.309-1.334-1.309h-12.274c-0.098,0-0.172,0.074-0.172,0.172v6.938c0,0.716,0.592,1.31,1.334,1.31H-6.739z"/>
		<path d="M1.209,7.408h11.63c1.481,0,2.691,1.21,2.691,2.716v15.41c0,0.197-0.172,0.396-0.369,0.396h-0.864
			c-0.198,0-0.396-0.199-0.396-0.396v-3.307c0-0.717-0.594-1.312-1.308-1.312H1.456c-0.717,0-1.311,0.596-1.311,1.312v3.307
			c0,0.197-0.172,0.396-0.37,0.396h-0.866c-0.197,0-0.396-0.199-0.396-0.396v-15.41C-1.485,8.618-0.273,7.408,1.209,7.408z
			 M12.593,19.286c0.714,0,1.308-0.592,1.308-1.309v-7.629c0-0.717-0.594-1.309-1.308-1.309H1.456c-0.864,0-1.311,0.716-1.311,1.433
			v7.505c0,0.717,0.594,1.309,1.311,1.309H12.593z"/>
		<path d="M17.973,25.534V7.802c0-0.197,0.198-0.394,0.396-0.394h0.816c0.248,0,0.418,0.198,0.418,0.394v16.324
			c0,0.098,0.05,0.199,0.148,0.199h8.52c0.47,0,0.816-0.199,1.012-0.643l4.026-8.051c0.024-0.1,0.048-0.174,0.048-0.296V7.804
			c0-0.197,0.198-0.394,0.396-0.394h0.863c0.196,0,0.37,0.198,0.37,0.394v8.101c0,0.172-0.023,0.322-0.124,0.468l-4.197,8.445
			c-0.395,0.742-0.988,1.113-1.902,1.113H18.367C18.171,25.931,17.973,25.731,17.973,25.534z"/>
		<path d="M38.813,25.931h-0.838c-0.198,0-0.372-0.199-0.372-0.396V7.802c0-0.197,0.172-0.394,0.372-0.394h0.838
			c0.198,0,0.395,0.198,0.395,0.394v17.732C39.208,25.731,39.011,25.931,38.813,25.931z"/>
		<path d="M49.703,25.534c0,0.197-0.172,0.396-0.418,0.396h-0.792c-0.247,0-0.418-0.199-0.418-0.396V10.347
			c0-0.717-0.594-1.309-1.31-1.309H40.79c-0.198,0-0.395-0.147-0.395-0.394V7.804c0-0.197,0.198-0.394,0.395-0.394h16.199
			c0.198,0,0.396,0.198,0.396,0.394v0.841c0,0.246-0.198,0.394-0.396,0.394h-5.974c-0.716,0-1.31,0.592-1.31,1.309v15.188H49.703z"
			/>
		<path d="M72.643,25.931H60.987c-1.481,0-2.668-1.236-2.668-2.717v-2.52c0-0.197,0.198-0.396,0.396-0.396h0.813
			c0.198,0,0.396,0.199,0.396,0.396v2.295c0,0.717,0.594,1.311,1.334,1.311h11.114c0.741,0,1.334-0.592,1.334-1.311v-4.172
			c0-0.742-0.593-1.336-1.334-1.336H60.989c-1.481,0-2.668-1.233-2.668-2.715V7.802c0-0.197,0.198-0.369,0.396-0.369h0.813
			c0.198,0,0.396,0.172,0.396,0.369v6.744c0,0.715,0.594,1.309,1.334,1.309h11.114c0.741,0,1.334-0.592,1.334-1.309V7.802
			c0-0.197,0.197-0.369,0.396-0.369h0.816c0.197,0,0.394,0.172,0.394,0.369v15.41C75.309,24.694,74.125,25.931,72.643,25.931z"/>
		<path fill="#939598" d="M94.741,10.124v13.088c0,1.506-1.184,2.717-2.666,2.717H78.147c-0.198,0-0.396-0.197-0.396-0.396V7.8
			c0-0.197,0.197-0.394,0.396-0.394h13.928C93.557,7.408,94.741,8.618,94.741,10.124z M93.137,22.966V10.347
			c0-0.717-0.59-1.309-1.334-1.309H79.531c-0.1,0-0.172,0.074-0.172,0.172v14.916c0,0.098,0.074,0.199,0.172,0.199h12.272
			C92.545,24.325,93.137,23.706,93.137,22.966z"/>
		<path fill="#939598" d="M98.69,25.931h-0.84c-0.197,0-0.369-0.199-0.369-0.396V7.802c0-0.197,0.172-0.394,0.369-0.394h0.84
			c0.197,0,0.395,0.198,0.395,0.394v17.732C99.084,25.731,98.889,25.931,98.69,25.931z"/>
		<path fill="#939598" d="M104.543,7.408h11.631c1.48,0,2.691,1.21,2.691,2.716v15.41c0,0.197-0.172,0.396-0.371,0.396h-0.863
			c-0.199,0-0.396-0.199-0.396-0.396v-3.307c0-0.717-0.592-1.312-1.307-1.312H104.79c-0.717,0-1.311,0.596-1.311,1.312v3.307
			c0,0.197-0.172,0.396-0.371,0.396h-0.863c-0.197,0-0.395-0.199-0.395-0.396v-15.41C101.85,8.618,103.061,7.408,104.543,7.408z
			 M115.928,19.286c0.715,0,1.307-0.592,1.307-1.309v-7.629c0-0.717-0.592-1.309-1.307-1.309H104.79
			c-0.865,0-1.311,0.716-1.311,1.433v7.505c0,0.717,0.594,1.309,1.311,1.309H115.928z"/>
		<path fill="#939598" d="M135.581,25.931h-11.605c-1.506,0-2.715-1.236-2.715-2.717V10.126c0-1.506,1.209-2.716,2.715-2.716h11.605
			c1.73,0,2.691,1.21,2.691,2.716v2.519c0,0.198-0.172,0.396-0.369,0.396h-0.863c-0.197,0-0.396-0.197-0.396-0.396v-2.296
			c0-0.717-0.445-1.309-1.334-1.309h-11.162c-0.764,0-1.285,0.592-1.285,1.309v12.619c0,0.74,0.594,1.357,1.332,1.357h11.141
			c0.715,0,1.307-0.617,1.307-1.357v-4.15c0-0.738-0.592-1.357-1.307-1.357h-6.148c-0.199,0-0.396-0.172-0.396-0.37v-0.84
			c0-0.198,0.197-0.396,0.396-0.396h8.691c0.248,0,0.395,0.147,0.395,0.396v6.964C138.272,24.694,137.063,25.931,135.581,25.931z"/>
		<path fill="#939598" d="M157.682,10.124v15.41c0,0.197-0.172,0.396-0.373,0.396h-0.865c-0.195,0-0.395-0.199-0.395-0.396V10.347
			c0-0.717-0.594-1.309-1.309-1.309h-11.137c-0.865,0-1.307,0.716-1.307,1.432v15.064c0,0.197-0.174,0.396-0.42,0.396h-0.814
			c-0.197,0-0.396-0.199-0.396-0.396V7.802c0-0.197,0.199-0.394,0.396-0.394h0.643c0.246,0,0.418,0.198,0.418,0.394v0.471
			c0.32-0.666,1.26-0.864,1.801-0.864h11.062C156.469,7.408,157.682,8.618,157.682,10.124z"/>
		<path fill="#939598" d="M174.395,25.931h-11.631c-1.48,0-2.691-1.236-2.691-2.717V10.126c0-1.481,1.211-2.716,2.691-2.716h11.631
			c1.482,0,2.668,1.21,2.668,2.692v13.113C177.063,24.694,175.877,25.931,174.395,25.931z M174.124,9.038H163.01
			c-0.742,0-1.332,0.592-1.332,1.309v12.619c0,0.74,0.59,1.359,1.332,1.359h11.113c0.742,0,1.334-0.619,1.334-1.359V10.347
			C175.458,9.63,174.866,9.038,174.124,9.038z"/>
		<path fill="#939598" d="M194.741,22.966v-4.148c0-0.742-0.592-1.359-1.334-1.359h-11.359c-1.482,0-2.693-1.186-2.693-2.666v-4.666
			c0-1.506,1.211-2.716,2.693-2.716h11.631c1.48,0,2.664,1.21,2.664,2.716v2.519c0,0.198-0.172,0.396-0.369,0.396h-0.84
			c-0.197,0-0.396-0.197-0.396-0.396v-2.296c0-0.717-0.592-1.309-1.334-1.309H182.29c-0.74,0-1.334,0.592-1.334,1.309v4.172
			c0,0.742,0.594,1.334,1.334,1.334h11.385c1.48,0,2.664,1.21,2.664,2.691v4.693c0,1.484-1.184,2.693-2.664,2.693h-11.607
			c-1.482,0-2.717-1.236-2.717-2.717v-2.521c0-0.197,0.199-0.396,0.398-0.396h0.836c0.199,0,0.371,0.199,0.371,0.396v2.271
			c0,0.74,0.594,1.359,1.334,1.359h11.113C194.149,24.325,194.741,23.706,194.741,22.966z"/>
		<path fill="#939598" d="M206.395,25.534c0,0.197-0.172,0.396-0.418,0.396h-0.791c-0.25,0-0.418-0.199-0.418-0.396V10.347
			c0-0.717-0.594-1.309-1.311-1.309h-5.977c-0.197,0-0.393-0.147-0.393-0.394V7.804c0-0.197,0.195-0.394,0.393-0.394h16.201
			c0.197,0,0.395,0.198,0.395,0.394v0.841c0,0.246-0.197,0.394-0.395,0.394h-5.977c-0.715,0-1.309,0.592-1.309,1.309v15.188H206.395
			z"/>
		<path fill="#939598" d="M216.467,25.931h-0.838c-0.197,0-0.369-0.199-0.369-0.396V7.802c0-0.197,0.172-0.394,0.369-0.394h0.838
			c0.199,0,0.395,0.198,0.395,0.394v17.732C216.862,25.731,216.667,25.931,216.467,25.931z"/>
		<path fill="#939598" d="M233.928,25.931h-11.631c-1.482,0-2.693-1.236-2.693-2.717V10.126c0-1.481,1.211-2.716,2.693-2.716h11.631
			c1.48,0,2.664,1.21,2.664,2.692v2.542c0,0.198-0.172,0.396-0.369,0.396h-0.838c-0.199,0-0.396-0.197-0.396-0.396v-2.296
			c0-0.717-0.494-1.309-1.334-1.309h-11.113c-0.742,0-1.334,0.592-1.334,1.309v12.619c0,0.74,0.592,1.357,1.334,1.357h11.113
			c0.74,0,1.334-0.617,1.334-1.357v-2.273c0-0.197,0.197-0.396,0.396-0.396h0.838c0.197,0,0.369,0.199,0.369,0.396v2.518
			C236.592,24.694,235.409,25.931,233.928,25.931z"/>
		<path fill="#939598" d="M254.075,22.966v-4.148c0-0.742-0.592-1.359-1.334-1.359h-11.359c-1.482,0-2.691-1.186-2.691-2.666v-4.666
			c0-1.506,1.209-2.716,2.691-2.716h11.629c1.484,0,2.668,1.21,2.668,2.716v2.519c0,0.198-0.172,0.396-0.373,0.396h-0.838
			c-0.199,0-0.396-0.197-0.396-0.396v-2.296c0-0.717-0.592-1.309-1.334-1.309h-11.113c-0.74,0-1.336,0.592-1.336,1.309v4.172
			c0,0.742,0.596,1.334,1.336,1.334h11.383c1.482,0,2.668,1.21,2.668,2.691v4.693c0,1.484-1.188,2.693-2.668,2.693h-11.605
			c-1.48,0-2.715-1.236-2.715-2.717v-2.521c0-0.197,0.197-0.396,0.395-0.396h0.84c0.195,0,0.369,0.199,0.369,0.396v2.271
			c0,0.74,0.594,1.359,1.334,1.359h11.113C253.481,24.325,254.075,23.706,254.075,22.966z"/>
	</g>
</g>
</svg>
